Coordinates
version=1
nRows=11
nColumns=42
inDegrees=yes

Units are S.I. units (second, meters, Newtons, ...)
If the header above contains a line with 'inDegrees', this indicates whether rotational values are in degrees (yes) or radians (no).

endheader
time	pelvis_tilt	pelvis_list	pelvis_rotation	pelvis_tx	pelvis_ty	pelvis_tz	hip_flexion_r	hip_adduction_r	hip_rotation_r	knee_angle_r	knee_adduction_r	knee_angle_r_beta	ankle_angle_r	subtalar_angle_r	mtp_angle_r	hip_flexion_l	hip_adduction_l	hip_rotation_l	knee_angle_l	knee_adduction_l	knee_angle_l_beta	ankle_angle_l	subtalar_angle_l	mtp_angle_l	lumbar_extension	lumbar_bending	lumbar_rotation	arm_flex_r	arm_add_r	arm_rot_r	elbow_flex_r	pro_sup_r	wrist_flex_r	wrist_dev_r	arm_flex_l	arm_add_l	arm_rot_l	elbow_flex_l	pro_sup_l	wrist_flex_l	wrist_dev_l
      0.50000000	     20.31677740	     -0.22191808	      2.66910350	     -0.43394069	      0.93339834	     -0.17608883	     -4.88995853	      3.09526929	    -12.45244361	     29.24728190	     -2.84782137	      0.51046137	     13.05729570	     19.65905877	     -9.05770263	    -29.47208562	      3.12491406	     -5.79973706	     25.85121492	     -0.18024314	      0.45118882	     20.53695587	     -8.73052315	     -9.05770263	    -33.05529771	     -1.85418385	      3.09898120	      6.08545765	    -10.99174368	    -34.76385626	     23.57867590	     90.00000001	      0.00000000	      0.00000000	     -1.13583779	    -19.25327246	      1.12849443	     68.48721263	     90.00000001	      0.00000000	      0.00000000
      0.51000000	     20.52254218	     -0.14339494	      2.58748848	     -0.42829520	      0.93498129	     -0.17518272	     -5.91400421	      3.06590395	    -14.17689861	     28.22437107	     -3.54901997	      0.49260820	     13.22860164	     22.41124440	     -8.93961538	    -29.46476358	      2.79960058	     -5.82636494	     27.18080736	      0.47199810	      0.47439458	     19.48491368	     -9.12378545	     -8.93961538	    -33.23187872	     -2.01800945	      3.06279161	      6.49745692	    -10.91355324	    -34.39760121	     23.97008383	     90.00000001	      0.00000000	      0.00000000	     -1.12090911	    -19.30725997	      0.96236450	     68.54896855	     90.00000001	      0.00000000	      0.00000000
      0.52000000	     20.75012002	     -0.13145129	      2.47003054	     -0.42278029	      0.93665033	     -0.17412330	     -7.06324756	      3.11158335	    -15.15879968	     27.00804577	     -3.78629943	      0.47137932	     13.12771880	     23.96068301	     -8.90672020	    -29.37639979	      2.37670979	     -5.87421477	     28.71260122	      1.16399691	      0.50112943	     18.26078843	     -9.62320271	     -8.90672020	    -33.44815221	     -2.13520686	      3.08932080	      6.96717129	    -10.81180467	    -34.12866428	     24.37943941	     90.00000001	      0.00000000	      0.00000000	     -1.10212520	    -19.36677777	      0.81170667	     68.70020095	     90.00000001	      0.00000000	      0.00000000
      0.53000000	     20.96134390	     -0.06162454	      2.40374443	     -0.41727851	      0.93822496	     -0.17324188	     -8.07948198	      3.10691459	    -17.16125154	     25.86711099	     -4.58034556	      0.45146625	     12.97849341	     27.39243882	     -8.84889835	    -29.22978884	      1.95287099	     -5.59889073	     30.31710538	      2.06229033	      0.52913331	     16.91031870	    -10.63772045	     -8.84889835	    -33.62924927	     -2.28232470	      3.04961184	      7.35939441	    -10.76692387	    -33.37918325	     24.91408354	     90.00000001	      0.00000000	      0.00000000	     -1.06570251	    -19.39748317	      0.60718272	     68.88052917	     90.00000001	      0.00000000	      0.00000000
      0.54000000	     21.10994506	      0.35253989	      2.37341528	     -0.41184830	      0.93963596	     -0.17287104	     -8.90015668	      2.51896512	    -19.72073583	     25.16877544	     -5.22763292	      0.43927800	     13.34418179	     31.32875113	     -8.73974845	    -28.97378970	      1.96462822	     -4.89791873	     31.88985405	      2.85781306	      0.55658295	     15.39787032	    -11.63601656	     -8.73974845	    -33.77283302	     -2.70337966	      2.79604493	      7.60896190	    -10.75479922	    -31.80431121	     25.61106430	     90.00000001	      0.00000000	      0.00000000	     -1.03718554	    -19.47044451	      0.50060041	     69.03717819	     90.00000001	      0.00000000	      0.00000000
      0.55000000	     21.25214078	      0.38870186	      2.38409886	     -0.40663616	      0.94105079	     -0.17213657	     -9.90446997	      2.50378715	    -20.56986087	     24.08685484	     -5.15780595	      0.42039492	     13.12292156	     32.49147546	     -8.71128875	    -28.46607308	      1.44153555	     -4.78285139	     33.93566124	      3.60415958	      0.59228902	     14.23310732	    -12.18505391	     -8.71128875	    -33.92729944	     -2.76710784	      2.71312871	      8.10767167	    -10.67463039	    -31.34926318	     26.13336041	     90.00000001	      0.00000000	      0.00000000	     -1.00398231	    -19.49338128	      0.33883026	     69.25519787	     90.00000001	      0.00000000	      0.00000000
      0.56000000	     21.25941377	      0.57723783	      2.45475799	     -0.40169387	      0.94223492	     -0.17176875	    -10.69178533	      2.23948992	    -21.21101974	     23.24871267	     -4.85823089	      0.40576658	     13.09258196	     33.38188796	     -8.69758848	    -27.70640048	      1.09521868	     -4.40742160	     36.05298037	      4.31797424	      0.62924321	     13.16092030	    -12.46502566	     -8.69758848	    -33.98573449	     -2.91568136	      2.50635034	      8.67802517	    -10.59074732	    -30.99711196	     26.61827977	     90.00000001	      0.00000000	      0.00000000	     -0.91126549	    -19.49726157	      0.24752890	     69.39140518	     90.00000001	      0.00000000	      0.00000000
      0.57000000	     21.17852682	      0.53098190	      2.56839407	     -0.39676537	      0.94306594	     -0.17112364	    -11.30404973	      2.36378810	    -22.22922814	     22.36384845	     -4.95246263	      0.39032279	     12.82700741	     34.76982035	     -8.67205929	    -26.66314896	      0.41601960	     -4.34235519	     38.52754796	      4.97465394	      0.67243256	     12.23310537	    -13.51622044	     -8.67205929	    -33.94115084	     -2.86577973	      2.40337046	      9.16127838	    -10.54115503	    -30.22555898	     27.22233168	     90.00000001	      0.00000000	      0.00000000	     -0.86742652	    -19.48871187	      0.04419878	     69.64380631	     90.00000001	      0.00000000	      0.00000000
      0.58000000	     20.94746593	      0.63568405	      2.65443466	     -0.39208975	      0.94355157	     -0.17072220	    -11.55913052	      2.23751749	    -23.25738505	     21.94893975	     -5.05986539	      0.38308127	     12.78181700	     36.11535391	     -8.60737279	    -25.40313909	     -0.03333196	     -4.03349817	     40.91386308	      5.61938603	      0.71408162	     11.42508122	    -14.40483249	     -8.60737279	    -33.78036407	     -2.94663112	      2.27183066	      9.43730413	    -10.62950261	    -28.23941950	     28.07756554	     90.00000001	      0.00000000	      0.00000000	     -0.74273073	    -19.44143952	     -0.13820474	     69.78258595	     90.00000001	      0.00000000	      0.00000000
      0.59000000	     20.82315892	      0.82737343	      2.86487564	     -0.38737461	      0.94427222	     -0.17078455	    -12.14432298	      1.98750602	    -23.30422944	     21.31929210	     -4.50381634	      0.37209184	     12.86503688	     36.26569567	     -8.58959552	    -24.25274100	     -0.33830688	     -3.77880256	     43.06118432	      5.89908539	      0.75155945	     10.93201776	    -14.68818176	     -8.58959552	    -33.74958092	     -3.01175970	      1.98919865	     10.00366352	    -10.55326546	    -27.79242783	     28.65017960	     90.00000001	      0.00000000	      0.00000000	     -0.65572240	    -19.39854982	     -0.14710037	     70.01154471	     90.00000001	      0.00000000	      0.00000000
      0.60000000	     20.57413044	      0.71783730	      3.00422577	     -0.38284613	      0.94450625	     -0.17028628	    -12.40984241	      2.20043447	    -23.45380605	     20.82426433	     -4.37357391	      0.36345198	     12.75657206	     36.35702710	     -8.46203104	    -22.81193877	     -1.06731966	     -3.85883573	     45.44652845	      6.26175272	      0.79319156	     10.59882365	    -15.55412828	     -8.46203104	    -33.58436451	     -2.88065965	      1.95713564	     10.12411055	    -10.85730375	    -24.76358920	     29.71470308	     90.00000001	      0.00000000	      0.00000000	     -0.53301292	    -19.34272238	     -0.33350859	     70.26495556	     90.00000001	      0.00000000	      0.00000000
